<svg xmlns="http://www.w3.org/2000/svg" viewBox="0 0 232 60" width="232" height="60" role="img" aria-label="Sysnovu">
  <title>Sysnovu</title>
  <defs>
    <linearGradient id="sysnovuHDFlow" x1="20" y1="15" x2="40" y2="45" gradientUnits="userSpaceOnUse">
      <stop offset="0" stop-color="#A78BFA"/>
      <stop offset="1" stop-color="#6366F1"/>
    </linearGradient>
  </defs>
  <g transform="translate(6,6)">
    <path d="M33 14 C33 9.5 27 8 22 9.6 C16 11.6 14.5 17.2 19 20 C22.6 22.3 29 23 30.6 27.2 C32.6 31.8 30 38 24 39 C19 39.9 14.6 37.4 14.6 33"
          fill="none" stroke="url(#sysnovuHDFlow)" stroke-width="5.4" stroke-linecap="round" stroke-linejoin="round"/>
    <circle cx="33" cy="14" r="3" fill="#818CF8"/>
    <circle cx="14.6" cy="33.4" r="3" fill="#C4B5FD"/>
    <path d="M36.5 8.2 L37.6 11 L40.4 12.1 L37.6 13.2 L36.5 16 L35.4 13.2 L32.6 12.1 L35.4 11 Z" fill="#22D3EE"/>
  </g>
  <text x="68" y="41" font-family="'Space Grotesk','Inter','Segoe UI',system-ui,sans-serif" font-size="33" font-weight="600" letter-spacing="-1" fill="#F8FAFC">sysnovu</text>
</svg>
